<svg width="26" height="26" viewBox="0 0 26 26" fill="none" xmlns="http://www.w3.org/2000/svg">
<g clip-path="url(#clip0_109_38)">
<path d="M24.4344 14.8004L22.3761 7.39478C21.7728 5.22522 20.4616 3.31959 18.6509 1.98079C16.8402 0.641985 14.634 -0.0531537 12.3829 0.00586644C10.1318 0.0648866 7.96497 0.874678 6.22693 2.30652C4.48889 3.73837 3.27933 5.71009 2.79053 7.90828L1.19694 15.0745C1.02092 15.8664 1.02499 16.6876 1.20885 17.4777C1.39271 18.2678 1.75168 19.0065 2.25924 19.6392C2.7668 20.272 3.41 20.7827 4.14135 21.1336C4.87269 21.4845 5.67352 21.6666 6.48469 21.6666H7.69153C7.94017 22.8911 8.60448 23.992 9.57191 24.7827C10.5393 25.5734 11.7504 26.0054 12.9999 26.0054C14.2493 26.0054 15.4604 25.5734 16.4278 24.7827C17.3952 23.992 18.0596 22.8911 18.3082 21.6666H19.216C20.0511 21.6667 20.8748 21.4737 21.6229 21.1027C22.371 20.7317 23.0232 20.1927 23.5286 19.528C24.0339 18.8632 24.3787 18.0906 24.5361 17.2705C24.6934 16.4504 24.659 15.605 24.4355 14.8004H24.4344ZM12.9999 23.8333C12.3301 23.8305 11.6775 23.6209 11.1314 23.233C10.5854 22.8452 10.1724 22.2981 9.94919 21.6666H16.0505C15.8273 22.2981 15.4144 22.8452 14.8683 23.233C14.3222 23.6209 13.6696 23.8305 12.9999 23.8333V23.8333ZM21.803 18.2162C21.5011 18.6167 21.11 18.9412 20.6608 19.1641C20.2115 19.3869 19.7164 19.5019 19.2149 19.4999H6.48469C5.99804 19.4999 5.51762 19.3905 5.07889 19.1799C4.64017 18.9693 4.25433 18.6629 3.94987 18.2833C3.6454 17.9036 3.43008 17.4604 3.3198 16.9864C3.20952 16.5125 3.20709 16.0197 3.31269 15.5447L4.90519 8.37736C5.28907 6.65075 6.23911 5.10202 7.60427 3.97735C8.96943 2.85268 10.6714 2.21663 12.4395 2.17031C14.2077 2.12399 15.9406 2.67006 17.3628 3.7217C18.7849 4.77335 19.8148 6.27022 20.2885 7.97436L22.3469 15.38C22.4829 15.8625 22.5045 16.3701 22.4101 16.8624C22.3157 17.3547 22.1079 17.8182 21.803 18.2162V18.2162Z" fill="#333333"/>
</g>
<defs>
<clipPath id="clip0_109_38">
<rect width="26" height="26" fill="white"/>
</clipPath>
</defs>
</svg>
