<svg width="22" height="21" viewBox="0 0 22 21" fill="none" xmlns="http://www.w3.org/2000/svg">
<path d="M13.9835 8.33333C15.03 8.33333 15.8793 9.18267 15.8793 10.2292V15.3739C15.8793 16.6671 15.3656 17.9074 14.4511 18.8218C13.5367 19.7363 12.2964 20.25 11.0032 20.25C9.70999 20.25 8.46974 19.7363 7.5553 18.8218C6.64085 17.9074 6.12713 16.6671 6.12713 15.3739V10.2292C6.12713 9.18267 6.97538 8.33333 8.02296 8.33333H13.9835ZM13.9835 9.95833H8.02296C7.95113 9.95833 7.88224 9.98687 7.83145 10.0377C7.78066 10.0884 7.75213 10.1573 7.75213 10.2292V15.3739C7.75213 16.2362 8.09465 17.0631 8.70435 17.6728C9.31404 18.2825 10.141 18.625 11.0032 18.625C11.8654 18.625 12.6924 18.2825 13.3021 17.6728C13.9118 17.0631 14.2543 16.2362 14.2543 15.3739V10.2292C14.2543 10.1573 14.2258 10.0884 14.175 10.0377C14.1242 9.98687 14.0553 9.95833 13.9835 9.95833ZM2.06246 8.33333H5.72521C5.34301 8.79493 5.10959 9.36147 5.05571 9.95833H2.06246C1.99063 9.95833 1.92174 9.98687 1.87095 10.0377C1.82016 10.0884 1.79163 10.1573 1.79163 10.2292V13.7489C1.79156 14.1583 1.88425 14.5624 2.06275 14.9308C2.24125 15.2992 2.50092 15.6223 2.82224 15.876C3.14355 16.1297 3.51817 16.3072 3.91796 16.3953C4.31774 16.4834 4.73228 16.4798 5.13046 16.3847C5.22254 16.9307 5.39046 17.4518 5.62121 17.936C4.9791 18.1078 4.30608 18.1296 3.65419 17.9997C3.00231 17.8698 2.38903 17.5918 1.86177 17.1871C1.33451 16.7823 0.907397 16.2617 0.613461 15.6656C0.319525 15.0694 0.166639 14.4136 0.166626 13.7489V10.2292C0.166626 9.18267 1.01596 8.33333 2.06246 8.33333ZM16.2812 8.33333H19.9375C20.984 8.33333 21.8333 9.18267 21.8333 10.2292V13.75C21.8334 14.4143 21.6809 15.0697 21.3874 15.6656C21.0939 16.2615 20.6673 16.7819 20.1407 17.1867C19.614 17.5915 19.0013 17.8698 18.3499 18.0001C17.6986 18.1304 17.026 18.1092 16.3841 17.9382C16.616 17.4528 16.7839 16.9318 16.877 16.3858C17.2747 16.4797 17.6885 16.4825 18.0874 16.3939C18.4863 16.3052 18.86 16.1275 19.1804 15.8739C19.5009 15.6204 19.7598 15.2976 19.9378 14.9298C20.1158 14.562 20.2083 14.1586 20.2083 13.75V10.2292C20.2083 10.1573 20.1798 10.0884 20.129 10.0377C20.0782 9.98687 20.0093 9.95833 19.9375 9.95833H16.9507C16.8968 9.36147 16.6634 8.79493 16.2812 8.33333ZM11 0.75C11.8619 0.75 12.6886 1.09241 13.2981 1.7019C13.9075 2.3114 14.25 3.13805 14.25 4C14.25 4.86195 13.9075 5.6886 13.2981 6.2981C12.6886 6.90759 11.8619 7.25 11 7.25C10.138 7.25 9.31135 6.90759 8.70186 6.2981C8.09237 5.6886 7.74996 4.86195 7.74996 4C7.74996 3.13805 8.09237 2.3114 8.70186 1.7019C9.31135 1.09241 10.138 0.75 11 0.75ZM18.0416 1.83333C18.7599 1.83333 19.4488 2.11867 19.9567 2.62659C20.4646 3.1345 20.75 3.82337 20.75 4.54167C20.75 5.25996 20.4646 5.94884 19.9567 6.45675C19.4488 6.96466 18.7599 7.25 18.0416 7.25C17.3233 7.25 16.6345 6.96466 16.1265 6.45675C15.6186 5.94884 15.3333 5.25996 15.3333 4.54167C15.3333 3.82337 15.6186 3.1345 16.1265 2.62659C16.6345 2.11867 17.3233 1.83333 18.0416 1.83333ZM3.95829 1.83333C4.67659 1.83333 5.36546 2.11867 5.87337 2.62659C6.38128 3.1345 6.66663 3.82337 6.66663 4.54167C6.66663 5.25996 6.38128 5.94884 5.87337 6.45675C5.36546 6.96466 4.67659 7.25 3.95829 7.25C3.24 7.25 2.55112 6.96466 2.04321 6.45675C1.5353 5.94884 1.24996 5.25996 1.24996 4.54167C1.24996 3.82337 1.5353 3.1345 2.04321 2.62659C2.55112 2.11867 3.24 1.83333 3.95829 1.83333ZM11 2.375C10.569 2.375 10.1557 2.5462 9.85091 2.85095C9.54616 3.1557 9.37496 3.56902 9.37496 4C9.37496 4.43098 9.54616 4.8443 9.85091 5.14905C10.1557 5.4538 10.569 5.625 11 5.625C11.4309 5.625 11.8443 5.4538 12.149 5.14905C12.4538 4.8443 12.625 4.43098 12.625 4C12.625 3.56902 12.4538 3.1557 12.149 2.85095C11.8443 2.5462 11.4309 2.375 11 2.375ZM18.0416 3.45833C17.7543 3.45833 17.4788 3.57247 17.2756 3.77563C17.0724 3.9788 16.9583 4.25435 16.9583 4.54167C16.9583 4.82898 17.0724 5.10453 17.2756 5.3077C17.4788 5.51086 17.7543 5.625 18.0416 5.625C18.3289 5.625 18.6045 5.51086 18.8077 5.3077C19.0108 5.10453 19.125 4.82898 19.125 4.54167C19.125 4.25435 19.0108 3.9788 18.8077 3.77563C18.6045 3.57247 18.3289 3.45833 18.0416 3.45833ZM3.95829 3.45833C3.67097 3.45833 3.39542 3.57247 3.19226 3.77563C2.9891 3.9788 2.87496 4.25435 2.87496 4.54167C2.87496 4.82898 2.9891 5.10453 3.19226 5.3077C3.39542 5.51086 3.67097 5.625 3.95829 5.625C4.24561 5.625 4.52116 5.51086 4.72432 5.3077C4.92749 5.10453 5.04163 4.82898 5.04163 4.54167C5.04163 4.25435 4.92749 3.9788 4.72432 3.77563C4.52116 3.57247 4.24561 3.45833 3.95829 3.45833Z" fill="#606265"/>
</svg>
