<svg width="22" height="21" viewBox="0 0 22 21" fill="none" xmlns="http://www.w3.org/2000/svg">
<path d="M13.9835 8.33333C15.03 8.33333 15.8793 9.18267 15.8793 10.2292V15.3739C15.8793 16.6671 15.3656 17.9074 14.4512 18.8218C13.5367 19.7363 12.2965 20.25 11.0033 20.25C9.71003 20.25 8.46978 19.7363 7.55534 18.8218C6.6409 17.9074 6.12717 16.6671 6.12717 15.3739V10.2292C6.12717 9.18267 6.97542 8.33333 8.023 8.33333H13.9835ZM13.9835 9.95833H8.023C7.95117 9.95833 7.88228 9.98687 7.83149 10.0377C7.7807 10.0884 7.75217 10.1573 7.75217 10.2292V15.3739C7.75217 16.2362 8.09469 17.0631 8.70439 17.6728C9.31408 18.2825 10.141 18.625 11.0033 18.625C11.8655 18.625 12.6924 18.2825 13.3021 17.6728C13.9118 17.0631 14.2543 16.2362 14.2543 15.3739V10.2292C14.2543 10.1573 14.2258 10.0884 14.175 10.0377C14.1242 9.98687 14.0553 9.95833 13.9835 9.95833ZM2.0625 8.33333H5.72525C5.34305 8.79493 5.10963 9.36147 5.05575 9.95833H2.0625C1.99067 9.95833 1.92178 9.98687 1.87099 10.0377C1.8202 10.0884 1.79167 10.1573 1.79167 10.2292V13.7489C1.7916 14.1583 1.8843 14.5624 2.0628 14.9308C2.2413 15.2992 2.50096 15.6223 2.82228 15.876C3.14359 16.1297 3.51821 16.3072 3.918 16.3953C4.31778 16.4834 4.73233 16.4798 5.1305 16.3847C5.22258 16.9307 5.3905 17.4518 5.62125 17.936C4.97914 18.1078 4.30612 18.1296 3.65424 17.9997C3.00235 17.8698 2.38907 17.5918 1.86181 17.1871C1.33455 16.7823 0.907438 16.2617 0.613502 15.6656C0.319566 15.0694 0.16668 14.4136 0.166667 13.7489V10.2292C0.166667 9.18267 1.016 8.33333 2.0625 8.33333ZM16.2812 8.33333H19.9375C20.984 8.33333 21.8333 9.18267 21.8333 10.2292V13.75C21.8335 14.4143 21.6809 15.0697 21.3874 15.6656C21.0939 16.2615 20.6674 16.7819 20.1407 17.1867C19.614 17.5915 19.0013 17.8698 18.35 18.0001C17.6986 18.1304 17.026 18.1092 16.3842 17.9382C16.616 17.4528 16.7839 16.9318 16.8771 16.3858C17.2748 16.4797 17.6885 16.4825 18.0875 16.3939C18.4864 16.3052 18.86 16.1275 19.1805 15.8739C19.5009 15.6204 19.7599 15.2976 19.9379 14.9298C20.1159 14.562 20.2083 14.1586 20.2083 13.75V10.2292C20.2083 10.1573 20.1798 10.0884 20.129 10.0377C20.0782 9.98687 20.0093 9.95833 19.9375 9.95833H16.9507C16.8969 9.36147 16.6635 8.79493 16.2812 8.33333ZM11 0.75C11.862 0.75 12.6886 1.09241 13.2981 1.7019C13.9076 2.3114 14.25 3.13805 14.25 4C14.25 4.86195 13.9076 5.6886 13.2981 6.2981C12.6886 6.90759 11.862 7.25 11 7.25C10.138 7.25 9.3114 6.90759 8.7019 6.2981C8.09241 5.6886 7.75 4.86195 7.75 4C7.75 3.13805 8.09241 2.3114 8.7019 1.7019C9.3114 1.09241 10.138 0.75 11 0.75ZM18.0417 1.83333C18.76 1.83333 19.4488 2.11867 19.9567 2.62659C20.4647 3.1345 20.75 3.82337 20.75 4.54167C20.75 5.25996 20.4647 5.94884 19.9567 6.45675C19.4488 6.96466 18.76 7.25 18.0417 7.25C17.3234 7.25 16.6345 6.96466 16.1266 6.45675C15.6187 5.94884 15.3333 5.25996 15.3333 4.54167C15.3333 3.82337 15.6187 3.1345 16.1266 2.62659C16.6345 2.11867 17.3234 1.83333 18.0417 1.83333ZM3.95833 1.83333C4.67663 1.83333 5.3655 2.11867 5.87341 2.62659C6.38133 3.1345 6.66667 3.82337 6.66667 4.54167C6.66667 5.25996 6.38133 5.94884 5.87341 6.45675C5.3655 6.96466 4.67663 7.25 3.95833 7.25C3.24004 7.25 2.55116 6.96466 2.04325 6.45675C1.53534 5.94884 1.25 5.25996 1.25 4.54167C1.25 3.82337 1.53534 3.1345 2.04325 2.62659C2.55116 2.11867 3.24004 1.83333 3.95833 1.83333ZM11 2.375C10.569 2.375 10.1557 2.5462 9.85095 2.85095C9.5462 3.1557 9.375 3.56902 9.375 4C9.375 4.43098 9.5462 4.8443 9.85095 5.14905C10.1557 5.4538 10.569 5.625 11 5.625C11.431 5.625 11.8443 5.4538 12.149 5.14905C12.4538 4.8443 12.625 4.43098 12.625 4C12.625 3.56902 12.4538 3.1557 12.149 2.85095C11.8443 2.5462 11.431 2.375 11 2.375ZM18.0417 3.45833C17.7543 3.45833 17.4788 3.57247 17.2756 3.77563C17.0725 3.9788 16.9583 4.25435 16.9583 4.54167C16.9583 4.82898 17.0725 5.10453 17.2756 5.3077C17.4788 5.51086 17.7543 5.625 18.0417 5.625C18.329 5.625 18.6045 5.51086 18.8077 5.3077C19.0109 5.10453 19.125 4.82898 19.125 4.54167C19.125 4.25435 19.0109 3.9788 18.8077 3.77563C18.6045 3.57247 18.329 3.45833 18.0417 3.45833ZM3.95833 3.45833C3.67102 3.45833 3.39547 3.57247 3.1923 3.77563C2.98914 3.9788 2.875 4.25435 2.875 4.54167C2.875 4.82898 2.98914 5.10453 3.1923 5.3077C3.39547 5.51086 3.67102 5.625 3.95833 5.625C4.24565 5.625 4.5212 5.51086 4.72437 5.3077C4.92753 5.10453 5.04167 4.82898 5.04167 4.54167C5.04167 4.25435 4.92753 3.9788 4.72437 3.77563C4.5212 3.57247 4.24565 3.45833 3.95833 3.45833Z" fill="white"/>
</svg>
