<svg width="97" height="21" viewBox="0 0 97 21" fill="none" xmlns="http://www.w3.org/2000/svg">
<path d="M0.84 3.088V0.679998H15.288V3.088H0.84ZM6.72 20V0.679998H9.408V20H6.72ZM15.2983 20L22.7463 0.679998H24.1183L24.3423 3.2L18.0983 20H15.2983ZM18.9383 14.568V12.16H28.9063V14.568H18.9383ZM23.3903 3.2L23.5023 0.679998H25.0983L32.5463 20H29.6343L23.3903 3.2ZM34.2398 17.368L35.8078 15.436C36.6292 16.2013 37.5532 16.7987 38.5798 17.228C39.6252 17.6387 40.7732 17.844 42.0238 17.844C42.9012 17.844 43.6292 17.7227 44.2078 17.48C44.8052 17.2373 45.2532 16.92 45.5518 16.528C45.8505 16.1173 45.9998 15.6787 45.9998 15.212C45.9998 14.708 45.8598 14.2507 45.5798 13.84C45.3185 13.4107 44.8425 13 44.1518 12.608C43.4798 12.216 42.5278 11.8147 41.2958 11.404C39.7092 10.8627 38.4585 10.312 37.5438 9.752C36.6478 9.17333 36.0132 8.548 35.6398 7.876C35.2665 7.204 35.0798 6.46667 35.0798 5.664C35.0798 4.69333 35.3505 3.816 35.8918 3.032C36.4518 2.22933 37.2265 1.59467 38.2158 1.128C39.2052 0.642666 40.3438 0.399999 41.6318 0.399999C42.7332 0.399999 43.8625 0.614665 45.0198 1.044C46.1772 1.47333 47.2038 2.07067 48.0998 2.836L46.5598 4.852C45.8692 4.18 45.0852 3.65733 44.2078 3.284C43.3492 2.91067 42.4252 2.724 41.4358 2.724C40.1852 2.724 39.2425 2.99467 38.6078 3.536C37.9918 4.05867 37.6838 4.67467 37.6838 5.384C37.6838 5.79467 37.8052 6.18667 38.0478 6.56C38.3092 6.93333 38.7572 7.29733 39.3918 7.652C40.0265 7.988 40.9225 8.34267 42.0798 8.716C43.7412 9.23867 45.0572 9.82667 46.0278 10.48C46.9985 11.1147 47.6985 11.8053 48.1278 12.552C48.5572 13.28 48.7718 14.0547 48.7718 14.876C48.7718 15.8653 48.5012 16.7707 47.9598 17.592C47.4185 18.4133 46.6252 19.0667 45.5798 19.552C44.5532 20.0373 43.2932 20.28 41.7998 20.28C40.8665 20.28 39.9238 20.1587 38.9718 19.916C38.0385 19.6547 37.1612 19.3093 36.3398 18.88C35.5185 18.432 34.8185 17.928 34.2398 17.368ZM53.1125 20V0.679998H55.8005V20H53.1125ZM55.3525 14.204V10.732L64.0045 0.679998H67.2805L58.9085 10.172L58.7125 10.396L55.3525 14.204ZM57.8725 10.676L59.5805 8.744L67.8405 20H64.5085L57.8725 10.676ZM70.49 20V17.732H78.778V20H70.49ZM70.49 2.948V0.679998H78.778V2.948H70.49ZM73.29 20V0.679998H75.978V20H73.29ZM83.8195 20V0.679998H86.5075V20H83.8195ZM85.2195 20V17.592H96.4475V20H85.2195ZM85.2195 11.404V8.996H94.9075V11.404H85.2195ZM85.2195 3.088V0.679998H96.3075V3.088H85.2195Z" fill="#333333"/>
</svg>
