<svg width="22" height="22" viewBox="0 0 22 22" fill="none" xmlns="http://www.w3.org/2000/svg">
<g clip-path="url(#clip0_153_118)">
<path d="M11.0001 3.66666C12.0126 3.66666 12.8334 2.84585 12.8334 1.83333C12.8334 0.820804 12.0126 -7.62939e-06 11.0001 -7.62939e-06C9.98756 -7.62939e-06 9.16675 0.820804 9.16675 1.83333C9.16675 2.84585 9.98756 3.66666 11.0001 3.66666Z" fill="white"/>
<path d="M11.0001 12.8336C12.0126 12.8336 12.8334 12.0128 12.8334 11.0003C12.8334 9.98776 12.0126 9.16695 11.0001 9.16695C9.98756 9.16695 9.16675 9.98776 9.16675 11.0003C9.16675 12.0128 9.98756 12.8336 11.0001 12.8336Z" fill="white"/>
<path d="M11.0001 21.9998C12.0126 21.9998 12.8334 21.1789 12.8334 20.1664C12.8334 19.1539 12.0126 18.3331 11.0001 18.3331C9.98756 18.3331 9.16675 19.1539 9.16675 20.1664C9.16675 21.1789 9.98756 21.9998 11.0001 21.9998Z" fill="white"/>
</g>
<defs>
<clipPath id="clip0_153_118">
<rect width="22" height="22" fill="white"/>
</clipPath>
</defs>
</svg>
