<svg width="26" height="27" viewBox="0 0 26 27" fill="none" xmlns="http://www.w3.org/2000/svg">
<g clip-path="url(#clip0_109_100)">
<path d="M13.0001 9.16733C12.143 9.16733 11.3052 9.42147 10.5926 9.89763C9.88 10.3738 9.32459 11.0506 8.99661 11.8424C8.66863 12.6342 8.58281 13.5055 8.75001 14.3461C8.91722 15.1866 9.32993 15.9588 9.93595 16.5648C10.542 17.1708 11.3141 17.5835 12.1547 17.7507C12.9953 17.9179 13.8666 17.8321 14.6584 17.5041C15.4502 17.1762 16.127 16.6207 16.6031 15.9081C17.0793 15.1955 17.3334 14.3577 17.3334 13.5007C17.3334 12.3514 16.8769 11.2492 16.0642 10.4365C15.2516 9.62387 14.1494 9.16733 13.0001 9.16733V9.16733ZM13.0001 15.6673C12.5716 15.6673 12.1527 15.5403 11.7963 15.3022C11.44 15.0641 11.1623 14.7257 10.9983 14.3298C10.8344 13.9339 10.7914 13.4983 10.875 13.078C10.9587 12.6577 11.165 12.2716 11.468 11.9686C11.771 11.6656 12.1571 11.4592 12.5774 11.3756C12.9977 11.292 13.4333 11.3349 13.8292 11.4989C14.2251 11.6629 14.5635 11.9406 14.8016 12.2969C15.0397 12.6532 15.1668 13.0721 15.1668 13.5007C15.1668 14.0753 14.9385 14.6264 14.5321 15.0327C14.1258 15.4391 13.5747 15.6673 13.0001 15.6673Z" fill="#606265"/>
<path d="M23.0686 15.5583L22.5876 15.281C22.8042 14.1028 22.8042 12.895 22.5876 11.7168L23.0686 11.4395C23.4385 11.2261 23.7627 10.9419 24.0228 10.6032C24.2829 10.2645 24.4737 9.87792 24.5843 9.46547C24.695 9.05302 24.7233 8.62282 24.6677 8.19942C24.6121 7.77602 24.4737 7.36772 24.2603 6.99783C24.0469 6.62794 23.7627 6.30371 23.424 6.04364C23.0853 5.78357 22.6987 5.59276 22.2862 5.4821C21.8738 5.37144 21.4436 5.34311 21.0202 5.39871C20.5968 5.45432 20.1885 5.59277 19.8186 5.80617L19.3365 6.08458C18.426 5.30666 17.3797 4.7036 16.2501 4.30575V3.75C16.2501 2.88805 15.9077 2.0614 15.2982 1.4519C14.6887 0.84241 13.8621 0.5 13.0001 0.5C12.1382 0.5 11.3115 0.84241 10.702 1.4519C10.0925 2.0614 9.75011 2.88805 9.75011 3.75V4.30575C8.62061 4.70503 7.57461 5.30957 6.66477 6.08892L6.18052 5.80833C5.4335 5.37736 4.54586 5.26079 3.71289 5.48427C2.87991 5.70775 2.16983 6.25297 1.73886 7C1.30788 7.74703 1.19131 8.63466 1.41479 9.46764C1.63827 10.3006 2.1835 11.0107 2.93052 11.4417L3.41152 11.719C3.19498 12.8972 3.19498 14.105 3.41152 15.2832L2.93052 15.5605C2.1835 15.9915 1.63827 16.7016 1.41479 17.5345C1.19131 18.3675 1.30788 19.2551 1.73886 20.0022C2.16983 20.7492 2.87991 21.2944 3.71289 21.5179C4.54586 21.7414 5.4335 21.6248 6.18052 21.1938L6.66261 20.9154C7.57344 21.6935 8.62017 22.2965 9.75011 22.6943V23.25C9.75011 24.112 10.0925 24.9386 10.702 25.5481C11.3115 26.1576 12.1382 26.5 13.0001 26.5C13.8621 26.5 14.6887 26.1576 15.2982 25.5481C15.9077 24.9386 16.2501 24.112 16.2501 23.25V22.6943C17.3796 22.295 18.4256 21.6904 19.3354 20.9111L19.8197 21.1906C20.5667 21.6216 21.4544 21.7381 22.2873 21.5147C23.1203 21.2912 23.8304 20.7459 24.2614 19.9989C24.6923 19.2519 24.8089 18.3643 24.5854 17.5313C24.3619 16.6983 23.8167 15.9882 23.0697 15.5573L23.0686 15.5583ZM20.3083 11.4677C20.6751 12.797 20.6751 14.2008 20.3083 15.5302C20.2442 15.7615 20.2588 16.0076 20.3498 16.2298C20.4408 16.452 20.603 16.6376 20.8109 16.7576L21.9853 17.4358C22.2342 17.5794 22.4159 17.8161 22.4904 18.0937C22.5649 18.3713 22.526 18.6672 22.3823 18.9161C22.2387 19.1651 22.002 19.3468 21.7244 19.4212C21.4467 19.4957 21.1509 19.4568 20.9019 19.3132L19.7254 18.6328C19.5173 18.5123 19.275 18.4644 19.0367 18.4968C18.7984 18.5292 18.5776 18.6399 18.4092 18.8116C17.4449 19.796 16.2301 20.4983 14.8959 20.8428C14.6631 20.9027 14.4567 21.0384 14.3094 21.2284C14.1621 21.4185 14.0822 21.6521 14.0824 21.8926V23.25C14.0824 23.5373 13.9682 23.8129 13.7651 24.016C13.5619 24.2192 13.2863 24.3333 12.999 24.3333C12.7117 24.3333 12.4362 24.2192 12.233 24.016C12.0298 23.8129 11.9157 23.5373 11.9157 23.25V21.8937C11.9158 21.6532 11.8359 21.4196 11.6886 21.2295C11.5413 21.0394 11.335 20.9038 11.1021 20.8439C9.76782 20.498 8.55338 19.7941 7.58994 18.8083C7.42151 18.6367 7.20074 18.5259 6.96243 18.4936C6.72411 18.4612 6.48181 18.509 6.27369 18.6296L5.09936 19.3088C4.97611 19.3811 4.83978 19.4283 4.69823 19.4476C4.55667 19.467 4.41269 19.4581 4.27457 19.4216C4.13644 19.3851 4.0069 19.3216 3.89341 19.2348C3.77992 19.148 3.68472 19.0397 3.61328 18.9159C3.54184 18.7922 3.49559 18.6556 3.47717 18.5139C3.45876 18.3722 3.46855 18.2283 3.50598 18.0904C3.54341 17.9525 3.60775 17.8234 3.69528 17.7105C3.78282 17.5976 3.89183 17.5031 4.01602 17.4325L5.19036 16.7543C5.3983 16.6344 5.56051 16.4487 5.65149 16.2265C5.74247 16.0044 5.75708 15.7583 5.69302 15.5269C5.32616 14.1976 5.32616 12.7937 5.69302 11.4644C5.75593 11.2335 5.74062 10.9883 5.64949 10.7671C5.55836 10.5458 5.39653 10.3609 5.18927 10.2413L4.01494 9.56317C3.76598 9.41951 3.58428 9.18283 3.50982 8.90521C3.43536 8.62759 3.47424 8.33175 3.6179 8.08279C3.76156 7.83383 3.99823 7.65213 4.27586 7.57768C4.55348 7.50322 4.84931 7.54209 5.09827 7.68575L6.27477 8.36608C6.48232 8.48689 6.72412 8.53531 6.96218 8.50374C7.20024 8.47217 7.42106 8.36239 7.58994 8.19167C8.5542 7.20729 9.76899 6.50494 11.1032 6.16042C11.3368 6.10036 11.5437 5.96406 11.691 5.77313C11.8384 5.58219 11.9179 5.34753 11.9168 5.10633V3.75C11.9168 3.46268 12.0309 3.18713 12.2341 2.98397C12.4372 2.7808 12.7128 2.66667 13.0001 2.66667C13.2874 2.66667 13.563 2.7808 13.7661 2.98397C13.9693 3.18713 14.0834 3.46268 14.0834 3.75V5.10633C14.0833 5.34679 14.1632 5.58045 14.3105 5.7705C14.4578 5.96056 14.6641 6.09621 14.897 6.15608C16.2317 6.50183 17.4465 7.20571 18.4103 8.19167C18.5787 8.36334 18.7995 8.47408 19.0378 8.50645C19.2761 8.53881 19.5184 8.49095 19.7265 8.37042L20.9009 7.69117C21.0241 7.61891 21.1604 7.57175 21.302 7.55239C21.4435 7.53304 21.5875 7.54188 21.7257 7.57839C21.8638 7.61491 21.9933 7.67839 22.1068 7.76517C22.2203 7.85196 22.3155 7.96033 22.3869 8.08406C22.4584 8.20779 22.5046 8.34443 22.523 8.48611C22.5415 8.62778 22.5317 8.7717 22.4942 8.90958C22.4568 9.04746 22.3925 9.17658 22.3049 9.28949C22.2174 9.4024 22.1084 9.49689 21.9842 9.5675L20.8099 10.2457C20.603 10.3656 20.4416 10.5506 20.3509 10.7718C20.2602 10.9931 20.2452 11.2381 20.3083 11.4688V11.4677Z" fill="#606265"/>
</g>
<defs>
<clipPath id="clip0_109_100">
<rect width="26" height="26" fill="white" transform="translate(0 0.5)"/>
</clipPath>
</defs>
</svg>
